<mxfile host="app.diagrams.net" agent="Mozilla/5.0 (Windows NT 10.0; Win64; x64) AppleWebKit/537.36 (KHTML, like Gecko) Chrome/125.0.0.0 Safari/537.36" version="24.7.5">
  <diagram name="Page-1" id="IQnJqDeYZVHRsLvpSiJ3">
    <mxGraphModel dx="1434" dy="780" grid="1" gridSize="10" guides="1" tooltips="1" connect="1" arrows="1" fold="1" page="1" pageScale="1" pageWidth="850" pageHeight="1100" math="0" shadow="0">
      <root>
        <mxCell id="0" />
        <mxCell id="1" parent="0" />
        <mxCell id="Xyj-qc0oV1CKGZ48Yo8w-36" value="SERVIDOR DE APLICACIONES" style="verticalAlign=top;align=left;spacingTop=8;spacingLeft=2;spacingRight=12;shape=cube;size=10;direction=south;fontStyle=4;html=1;whiteSpace=wrap;" parent="1" vertex="1">
          <mxGeometry x="400" y="360" width="360" height="300" as="geometry" />
        </mxCell>
        <mxCell id="Xyj-qc0oV1CKGZ48Yo8w-5" value="Actor" style="shape=umlActor;verticalLabelPosition=bottom;verticalAlign=top;html=1;container=0;" parent="1" vertex="1">
          <mxGeometry x="10" y="45" width="30" height="60" as="geometry" />
        </mxCell>
        <mxCell id="Xyj-qc0oV1CKGZ48Yo8w-6" value="PC CLIENTE" style="verticalAlign=top;align=left;spacingTop=8;spacingLeft=2;spacingRight=12;shape=cube;size=10;direction=south;fontStyle=4;html=1;whiteSpace=wrap;container=0;" parent="1" vertex="1">
          <mxGeometry x="160" width="180" height="120" as="geometry" />
        </mxCell>
        <mxCell id="Xyj-qc0oV1CKGZ48Yo8w-8" value="Navegador Web" style="shape=module;align=left;spacingLeft=20;align=center;verticalAlign=top;whiteSpace=wrap;html=1;container=0;" parent="1" vertex="1">
          <mxGeometry x="190" y="60" width="100" height="50" as="geometry" />
        </mxCell>
        <mxCell id="Xyj-qc0oV1CKGZ48Yo8w-23" value="Use" style="endArrow=open;endSize=12;dashed=1;html=1;rounded=0;" parent="1" edge="1">
          <mxGeometry width="160" relative="1" as="geometry">
            <mxPoint x="40" y="74.5" as="sourcePoint" />
            <mxPoint x="150" y="74.5" as="targetPoint" />
          </mxGeometry>
        </mxCell>
        <mxCell id="Xyj-qc0oV1CKGZ48Yo8w-24" value="" style="endArrow=open;endSize=12;dashed=1;html=1;rounded=0;entryX=0;entryY=0;entryDx=0;entryDy=165;entryPerimeter=0;startArrow=open;startFill=0;exitX=0;exitY=0;exitDx=120;exitDy=95;exitPerimeter=0;" parent="1" source="Xyj-qc0oV1CKGZ48Yo8w-6" target="Xyj-qc0oV1CKGZ48Yo8w-9" edge="1">
          <mxGeometry width="160" relative="1" as="geometry">
            <mxPoint x="290" y="200" as="sourcePoint" />
            <mxPoint x="390" y="170" as="targetPoint" />
          </mxGeometry>
        </mxCell>
        <mxCell id="Xyj-qc0oV1CKGZ48Yo8w-38" value="HTTP/HTTPS" style="edgeLabel;html=1;align=center;verticalAlign=middle;resizable=0;points=[];" parent="Xyj-qc0oV1CKGZ48Yo8w-24" vertex="1" connectable="0">
          <mxGeometry x="0.0729" y="2" relative="1" as="geometry">
            <mxPoint as="offset" />
          </mxGeometry>
        </mxCell>
        <mxCell id="Xyj-qc0oV1CKGZ48Yo8w-16" value="SERVIDOR DE BASE DE DATOS" style="verticalAlign=top;align=left;spacingTop=8;spacingLeft=2;spacingRight=12;shape=cube;size=10;direction=south;fontStyle=4;html=1;whiteSpace=wrap;container=0;" parent="1" vertex="1">
          <mxGeometry x="450" y="170" width="180" height="120" as="geometry" />
        </mxCell>
        <mxCell id="Xyj-qc0oV1CKGZ48Yo8w-9" value="SERVIDOR WEB TOMCAT" style="verticalAlign=top;align=left;spacingTop=8;spacingLeft=2;spacingRight=12;shape=cube;size=10;direction=south;fontStyle=4;html=1;whiteSpace=wrap;container=0;" parent="1" vertex="1">
          <mxGeometry x="40" y="270" width="340" height="390" as="geometry" />
        </mxCell>
        <mxCell id="Xyj-qc0oV1CKGZ48Yo8w-20" value="BASE DE DATOS VIDA SALUD" style="shape=module;align=left;spacingLeft=20;align=center;verticalAlign=top;whiteSpace=wrap;html=1;container=0;" parent="1" vertex="1">
          <mxGeometry x="490" y="220" width="100" height="50" as="geometry" />
        </mxCell>
        <mxCell id="Y3_KKFiqaDDhX_Ar9Exh-7" value="" style="group" vertex="1" connectable="0" parent="1">
          <mxGeometry x="450" y="450" width="100" height="160" as="geometry" />
        </mxCell>
        <mxCell id="Y3_KKFiqaDDhX_Ar9Exh-2" value="vidasalud.ear" style="shape=module;align=left;spacingLeft=20;align=center;verticalAlign=top;whiteSpace=wrap;html=1;" vertex="1" parent="Y3_KKFiqaDDhX_Ar9Exh-7">
          <mxGeometry width="100" height="50" as="geometry" />
        </mxCell>
        <mxCell id="Y3_KKFiqaDDhX_Ar9Exh-3" value="log4.jar" style="shape=module;align=left;spacingLeft=20;align=center;verticalAlign=top;whiteSpace=wrap;html=1;" vertex="1" parent="Y3_KKFiqaDDhX_Ar9Exh-7">
          <mxGeometry y="110" width="100" height="50" as="geometry" />
        </mxCell>
        <mxCell id="Y3_KKFiqaDDhX_Ar9Exh-4" value="Use" style="endArrow=openThin;endSize=12;dashed=1;html=1;rounded=0;startArrow=open;startFill=0;endFill=0;exitX=0.61;exitY=0.943;exitDx=0;exitDy=0;exitPerimeter=0;entryX=0.5;entryY=0;entryDx=0;entryDy=0;" edge="1" parent="Y3_KKFiqaDDhX_Ar9Exh-7" source="Y3_KKFiqaDDhX_Ar9Exh-2" target="Y3_KKFiqaDDhX_Ar9Exh-3">
          <mxGeometry width="160" relative="1" as="geometry">
            <mxPoint x="-390" y="90" as="sourcePoint" />
            <mxPoint x="-230" y="90" as="targetPoint" />
          </mxGeometry>
        </mxCell>
        <mxCell id="Y3_KKFiqaDDhX_Ar9Exh-5" value="RMI/OP&lt;div&gt;&lt;br style=&quot;font-size: 12px; background-color: rgb(251, 251, 251);&quot;&gt;&lt;/div&gt;" style="endArrow=openThin;endSize=12;dashed=1;html=1;rounded=0;startArrow=open;startFill=0;endFill=0;exitX=1;exitY=0.5;exitDx=0;exitDy=0;entryX=0.06;entryY=0.52;entryDx=0;entryDy=0;entryPerimeter=0;" edge="1" parent="1" source="Xyj-qc0oV1CKGZ48Yo8w-19" target="Y3_KKFiqaDDhX_Ar9Exh-2">
          <mxGeometry width="160" relative="1" as="geometry">
            <mxPoint x="261" y="610" as="sourcePoint" />
            <mxPoint x="260" y="663" as="targetPoint" />
          </mxGeometry>
        </mxCell>
        <mxCell id="Y3_KKFiqaDDhX_Ar9Exh-10" value="" style="group" vertex="1" connectable="0" parent="1">
          <mxGeometry x="80" y="250" width="160" height="305" as="geometry" />
        </mxCell>
        <mxCell id="Xyj-qc0oV1CKGZ48Yo8w-37" value="&lt;div&gt;&lt;br&gt;&lt;/div&gt;" style="text;html=1;align=center;verticalAlign=middle;resizable=0;points=[];autosize=1;strokeColor=none;fillColor=none;" parent="Y3_KKFiqaDDhX_Ar9Exh-10" vertex="1">
          <mxGeometry width="20" height="30" as="geometry" />
        </mxCell>
        <mxCell id="Xyj-qc0oV1CKGZ48Yo8w-39" value="" style="group" parent="Y3_KKFiqaDDhX_Ar9Exh-10" vertex="1" connectable="0">
          <mxGeometry x="80" y="340" width="135" height="300" as="geometry" />
        </mxCell>
        <mxCell id="Y3_KKFiqaDDhX_Ar9Exh-9" value="" style="group" vertex="1" connectable="0" parent="Xyj-qc0oV1CKGZ48Yo8w-39">
          <mxGeometry x="-35" y="5" width="135" height="270" as="geometry" />
        </mxCell>
        <mxCell id="Xyj-qc0oV1CKGZ48Yo8w-12" value="-Log4.jar" style="shape=module;align=left;spacingLeft=20;align=center;verticalAlign=top;whiteSpace=wrap;html=1;movable=1;resizable=1;rotatable=1;deletable=1;editable=1;locked=0;connectable=1;container=0;" parent="Y3_KKFiqaDDhX_Ar9Exh-9" vertex="1">
          <mxGeometry x="35" y="220" width="100" height="50" as="geometry" />
        </mxCell>
        <mxCell id="Xyj-qc0oV1CKGZ48Yo8w-19" value="vidasalud.war" style="shape=module;align=left;spacingLeft=20;align=center;verticalAlign=top;whiteSpace=wrap;html=1;movable=1;resizable=1;rotatable=1;deletable=1;editable=1;locked=0;connectable=1;container=0;" parent="Y3_KKFiqaDDhX_Ar9Exh-9" vertex="1">
          <mxGeometry x="15" y="110" width="100" height="50" as="geometry" />
        </mxCell>
        <mxCell id="Xyj-qc0oV1CKGZ48Yo8w-32" value="Use" style="endArrow=open;endSize=12;dashed=1;html=1;rounded=0;exitX=0.62;exitY=0.98;exitDx=0;exitDy=0;exitPerimeter=0;entryX=0.5;entryY=0;entryDx=0;entryDy=0;movable=1;resizable=1;rotatable=1;deletable=1;editable=1;locked=0;connectable=1;" parent="Y3_KKFiqaDDhX_Ar9Exh-9" source="Xyj-qc0oV1CKGZ48Yo8w-19" target="Xyj-qc0oV1CKGZ48Yo8w-12" edge="1">
          <mxGeometry width="160" relative="1" as="geometry">
            <mxPoint x="55" y="200" as="sourcePoint" />
            <mxPoint x="145" y="200" as="targetPoint" />
          </mxGeometry>
        </mxCell>
        <mxCell id="Y3_KKFiqaDDhX_Ar9Exh-11" value="TCP/IP" style="endArrow=open;endSize=12;dashed=1;html=1;rounded=0;entryX=0.5;entryY=0;entryDx=0;entryDy=0;exitX=0.5;exitY=1;exitDx=0;exitDy=0;startArrow=open;startFill=0;" edge="1" parent="1" target="Y3_KKFiqaDDhX_Ar9Exh-12" source="Xyj-qc0oV1CKGZ48Yo8w-20">
          <mxGeometry width="160" relative="1" as="geometry">
            <mxPoint x="882" y="340" as="sourcePoint" />
            <mxPoint x="450" y="440.40999999999997" as="targetPoint" />
          </mxGeometry>
        </mxCell>
        <mxCell id="Y3_KKFiqaDDhX_Ar9Exh-12" value="mariadb-java-client-3.4.0.jar" style="shape=module;align=left;spacingLeft=20;align=center;verticalAlign=top;whiteSpace=wrap;html=1;movable=1;resizable=1;rotatable=1;deletable=1;editable=1;locked=0;connectable=1;container=0;" vertex="1" parent="1">
          <mxGeometry x="600" y="400" width="100" height="50" as="geometry" />
        </mxCell>
      </root>
    </mxGraphModel>
  </diagram>
</mxfile>
